<?xml version="1.0" encoding="utf-8"?>
<!-- Generator: Adobe Illustrator 16.0.0, SVG Export Plug-In . SVG Version: 6.00 Build 0)  -->
<!DOCTYPE svg PUBLIC "-//W3C//DTD SVG 1.1//EN" "http://www.w3.org/Graphics/SVG/1.1/DTD/svg11.dtd">
<svg version="1.1" id="Ebene_2" xmlns="http://www.w3.org/2000/svg" xmlns:xlink="http://www.w3.org/1999/xlink" x="0px" y="0px"
	 width="582.929px" height="598.189px" viewBox="0 0 582.929 598.189" enable-background="new 0 0 582.929 598.189"
	 xml:space="preserve">
<g>
	<g>
		<g id="g2715_2_" transform="matrix(3.5961261,0,0,3.5961261,-42.305698,-218.40281)">
			<path id="path2717_2_" d="M59.449,87.375c0,0,0.842-1.634,2.998-2.197c2.2-0.572,5.388-2.324,5.658-4.338
				c0,0-0.617,1.091-2.187,1.53c0,0,2.042-3.865,0.258-5.024c-1.374-0.895-3.194,2.123-3.194,2.123s-0.529-1.137-1.571-0.672
				c-1.195,0.533-2.211,2.938-2.451,4.204c0,0-0.004-2.348-0.847-2.575c-0.673-0.179-2.211,3.248-2.211,3.248
				s-0.594-1.59-1.785-1.056c-1.185,0.533-1.809,2.326-2.026,4.174c0,0-0.302-2.787-1.242-2.14c0,0-0.509-2.583,0.445-5.731
				c0.951-3.143,2.819-3.943,3.76-3.592c0.938,0.353,1.344,1.685,0.579,2.387c-0.76,0.706-1.53,0.244-1.611-0.185
				c0,0,0.921-0.29,0.922-0.883c0.001-0.593-0.507-1.086-1.262-0.681c-0.756,0.405-0.974,1.234-0.501,2.151
				c0.472,0.921,1.596,0.907,2.525,0.416c0.934-0.493,1.568-2.113,0.806-3.551c-0.762-1.438-1.911-1.379-2.674-0.984
				c-0.761,0.394-2.327,1.536-3.17,5.066c-0.848,3.529-0.37,6.377-0.37,6.377s-0.511,1.065-1.029,2.812c0,0-0.845-1.194-2.004-0.851
				c-1.163,0.342-1.77,2.128-2.113,3.657c0,0-0.867-0.949-1.96-0.405c-1.147,0.568-1.187,3.829-1.187,3.829
				s-0.601-1.493-1.305-1.329c-0.701,0.165-0.75,3.641-0.75,3.641s-0.384-1.181-0.37-1.869c0.015-0.688-0.094-1.152-0.094-1.152
				s-0.147,1.135-1.361,2.297c-0.997,0.955-2.218,2.241-3.641,4.178c-1.423,1.937-1.951,3.358-2.015,5.662
				c0,0-0.852-0.463-1.468,0.188c-0.82,0.867-0.606,4.44-0.606,4.44s-1.054-1.026-1.939,0.158c-1.11,1.492-0.209,4.192-0.209,4.192
				s-0.904-0.687-1.553-0.03c-0.646,0.656-0.127,3.417-0.009,3.82c0,0-0.775-1.054-1.106-0.757c-0.38,0.342-0.399,2.671,0.294,4.321
				c0,0-2.907-3.655-4.211-6.485c-1.305-2.834-1.937-5.471-1.02-6.782c-0.082-0.103-0.123-0.155-0.204-0.258
				c-1.293,2.526-0.221,5.104,0.603,7.622c0.818,1.907,2.127,3.875,3.053,5.157c1.561,2.161,2.835,3.501,2.835,3.501
				s0.519,1.267,0.78,2.448c0.262,1.179,0.192,1.997-1.225,1.955c-1.42-0.042-3.175-1.694-2.419-3.594c0,0,0.723,0.744,1.151-0.025
				c0.426-0.771-0.277-1.36-0.711-1.436c-0.997-0.177-1.426,1.828-1.08,3.101c0.687,2.522,3.465,4.4,4.868,3.056
				c1.29-1.232-0.352-4.342-0.352-4.342c2.657,3.047,5.441,5.998,7.959,9.162c2.818,3.669,5.669,7.298,8.753,10.749
				c-0.009-0.156-0.013-0.233-0.022-0.388c0,0-2.311-2.826-2.681-3.271c-0.883-1.053-2.779-3.536-4.085-5.304
				c-1.559-2.141-3.107-4.29-4.791-6.335c-2.27-2.69-4.521-5.395-6.773-8.1c0,0-0.685-2.505-0.239-3.063
				c0.249-0.313,3.551,3.739,3.843,5.095c0,0,0.306-0.274,0.046-1.311c-0.26-1.037-0.787-1.933-1.477-2.811
				c-0.697-0.883-1.91-3.24-0.811-4.032c1.002-0.719,3.791,1.93,2.801,3.347c0,0-0.678-0.832-1.177-0.48
				c-0.503,0.347-0.331,0.954,0.266,1.47s1.603,0.55,1.72-0.611c0.12-1.163-0.362-3.486-2.41-5.02c0,0-0.476-2.725,0.345-3.33
				c0.819-0.605,4.307,1.797,3.014,3.297c0,0-0.897-1.219-1.511-0.717c-0.76,0.615,0.525,2.199,1.525,1.819
				c0.997-0.381,1.057-1.97,0.403-3.357c-0.653-1.384-1.202-1.824-1.76-2.177c0,0-0.321-3.336,0.93-3.389
				c0.942-0.036,2.293,2.359,2.664,4.993c0.132-0.278,0.199-0.417,0.334-0.692c0,0-0.331-1.723,0.632-2.238
				c0.96-0.513,3.36,1.597,4.129,3.643c1.145,3.276,1.848,6.694,2.496,10.097c0.038-0.108,0.058-0.161,0.097-0.269
				c-0.502-3.542-0.927-7.208-2.178-10.578c-1.276-3.085-3.684-4.823-4.6-4.643c-0.846,0.166-1.136,1.753-1.136,1.753
				s-0.397-1.963-1.396-3.24c0,0-0.119-1.778,1.372-3.66c0,0,0.144,4.441,2.471,4.58c2.348,0.142,1.524-3.998,1.524-3.998
				s0.944,0.951,1.72,0.223c0.777-0.724,0.676-2.622,0.676-2.622c1.932,3.957,3.489,8.082,4.984,12.219
				c1.39,3.968,2.906,7.888,4.315,11.849c0.05-0.127,0.075-0.19,0.126-0.317c-1.498-4.107-2.97-8.213-4.344-12.363
				c-1.667-4.934-3.388-9.871-5.461-14.652c0,0-0.145-2.484,0.473-2.719c0.479-0.184,1.402,1.832,1.557,2.283
				c1.274,3.035,2.489,6.092,3.575,9.2c1.524,4.396,3.106,8.777,4.557,13.198c0.065-0.121,0.098-0.181,0.163-0.301
				c-1.432-4.215-2.717-8.476-4.075-12.715c-1.219-3.537-2.448-7.071-3.809-10.556c0,0-0.387-2.692,0.383-3.339
				c0.766-0.651,1.641-0.428,2.35,0.729c0.708,1.153,0.638,2.23-0.083,2.8c0,0-0.058-0.913-0.944-0.758
				c-0.729,0.126-0.471,1.614,0.252,1.829c0.973,0.288,1.93-0.782,1.932-2.337c0.001-1.557-0.276-2.226-0.862-3.116
				c0,0,0.244-2.831,1.729-2.872c1.524-0.039,2.537,3.515,1.388,4.256c0,0,0.243-1.202-0.759-1.236
				c-0.941-0.032-0.744,1.752,0.295,2.034c1.041,0.283,1.658-0.989,1.783-1.898c0.168-1.196-0.055-2.1-0.497-3.089
				c0,0,0.546-2.508,1.112-2.565c0.565-0.059,1.382,2.79,1.415,5.557c0,0,0.297-0.764,0.549-1.14
				c0.242-0.38,0.227-0.746,0.068-1.255C52.629,88.977,52.466,88,52.466,88s0.059-3.333,1.617-3.776
				c0.984-0.281,2.427,3.532,1.065,4.21c0,0,0.064-1.054-0.692-1.068c-0.756-0.014-0.989,1.869,0.103,1.991
				c1.093,0.127,1.964-1.293,2.016-2.55c0.052-1.257-0.447-2.488-0.447-2.488s0.793-2.189,1.413-2.269
				c0.616-0.082,1.012,3.357,1.123,4.496c0.303,2.8,0.48,5.609,0.501,8.426c0.04,2.941,0.102,5.879,0.186,8.819
				c0.123-0.098,0.184-0.147,0.308-0.245c-0.15-2.863-0.119-5.728-0.064-8.593C59.64,89.969,59.449,87.375,59.449,87.375z
				 M37.768,102.801c0,0,0.319,2.926-1.056,2.643c-1.544-0.316-2.335-2.353-1.916-3.711c0,0,1.136-1.213,1.819-2.204
				C36.616,99.528,36.696,101.787,37.768,102.801z M39.218,97.598c0.276,0.626,0.735,1.513,0.849,2.344
				c0.125,0.917-0.139,1.712-0.669,2.062c-0.429,0.287-1.177-0.398-1.65-1.133c-0.554-0.855-0.669-1.927-0.669-1.927
				s0.276-0.55,0.757-0.971c0.561-0.484,0.906-0.941,1.048-1.317C38.883,96.656,38.985,97.063,39.218,97.598z M63.199,80.299
				c0,0,0.984-2.355,2.086-1.556c1.62,1.18,0.004,3.941,0.004,3.941c-1.315,0.74-2.703,0.952-2.703,0.952
				C63.608,81.289,63.199,80.299,63.199,80.299z M59.504,82.758c0.329-1.613,1.428-2.885,2.108-2.587
				c1.829,0.804,0.315,3.795,0.315,3.795c-1.337,0.419-2.533,2.325-2.533,2.325C59.234,85.591,59.232,84.103,59.504,82.758z"/>
		</g>
		<g id="g2719_2_" transform="matrix(3.5961261,0,0,3.5961261,-42.305698,-218.40281)">
			<path id="path2721_2_" d="M100.295,71.454c-0.375,0.075-0.562,0.114-0.935,0.193c-1.226,1.689-5.685,0.696-5.685,0.696
				c1.081-1.983,3.489-4.35,5.039-5.329c1.548-0.979,3.111-1.117,4.013-0.368c0.902,0.751,0.631,1.682,0.245,2.051
				c-0.383,0.372-1.105,0.795-1.892,0.359c-0.795-0.434-0.483-0.999-0.483-0.999c0.402,0.628,0.934,0.425,1.307,0.096
				c0.281-0.247,0.574-0.723,0.195-1.143c-0.971-1.065-3.643,1.165-1.653,2.671c0.984,0.75,2.287,0.264,3.231-0.651
				c0.705-0.681,1.457-2.343,0.559-3.364c-1.513-1.713-4.941,0.397-4.941,0.397c-1.183-1.162-2.737-1.155-4.596,0.732
				c-2.041,2.081-3.671,5.2-3.671,5.2c-2.523-0.31-3.433,0.249-4.545,0.792c-1.109,0.546-2.402,0.418-4.2,0.304
				c-1.793-0.112-3.216,0.239-3.216,0.239c1.024-2.789,2.958-5.043,4.117-6.138c1.156-1.094,2.558-1.618,3.456-1.292
				c0.897,0.328,1.584,1.346,0.591,2.269c-0.827,0.766-2.014-0.147-2.014-0.147c1.213-0.061,1.813-1.234,1.038-1.693
				c-0.772-0.459-1.357,0.211-1.563,0.572c-0.209,0.363-0.817,1.498,0.365,2.11c0.946,0.487,2.222,0.149,2.892-0.556
				c0.831-0.876,1.264-2.33,0.279-3.177c-1.219-1.051-3.533-0.525-5.871,2.051c-2.341,2.577-3.883,6.22-3.883,6.22
				c-1.942,0.931-3.494,2.512-3.494,2.512s-0.183-1.647-1.389-1.414c-2.334,0.45-3.671,3.636-3.671,3.636
				c0.385-2.429-0.12-2.779-0.934-2.044c-0.811,0.737-1.512,1.691-1.769,2.2c-0.121,0.243-0.12,0.406-0.02,0.45
				c0.159,0.069,0.277-0.05,0.38-0.253c0.215-0.432,0.95-1.416,1.281-1.238c0.356,0.188,0.184,1.909,0.055,3.557
				c-0.258,4.18-1.147,8.296-1.766,12.43c-0.518,3.819-0.922,7.649-1.417,11.47c0.097-0.064,0.145-0.095,0.243-0.158
				c0.607-5.642,1.639-11.184,2.632-16.765c0.398-2.241,0.719-4.517,0.906-5.876c0.137-0.982,0.226-1.289,0.226-1.289
				c0.706-3.066,1.985-4.355,2.944-4.764c0.959-0.412,1.532,0.327,1.279,2.225c-0.208,1.55-1.045,1.928-1.045,1.928
				c-0.403-1.085-0.952-1.003-1.299-0.561c-0.297,0.382-0.303,1.117,0.071,1.376c0.678,0.469,1.452,0.341,2.414-1.09
				c0.965-1.432,0.934-3.28,0.934-3.28c2.3-2.552,4.738-2.229,4.738-2.229c-2.407,2.223-6.35,6.408-2.577,9.449
				c1.748,1.282,4.134,0.792,5.576-0.667c1.993-2.012,1.337-3.756,1.337-3.756c1.934-1.039,3.423-3.1,3.423-3.1
				s-0.328,1.915,1.262,1.928c1.937,0.017,3.768-2.028,3.768-2.028c-1.656,3.688-3.377,7.349-5.098,11.007
				c-1.316,2.773-2.415,4.79-3.208,6.285c-0.98,1.854-1.528,2.849-1.528,2.849c0.109-0.021,0.164-0.032,0.274-0.053
				c2.877-5.079,5.667-10.205,8.185-15.473c1.207-2.454,2.433-4.89,3.747-7.288C98.248,73.819,100.295,71.454,100.295,71.454z
				 M93.216,69.295c1.38-1.901,2.551-2.71,3.351-2.876c0.792-0.166,1.422,0.551,1.422,0.551c-1.999,1.166-4.811,5.247-4.811,5.247
				c-0.691-0.093-1.038-0.136-1.734-0.213C91.443,72.004,91.835,71.196,93.216,69.295z M86.295,77.124
				c-1.081,1.227-2.262,1.846-2.262,1.846s-0.118-1.086-0.896-1.63c-0.96-0.679-1.581-0.207-1.923,0.407
				c-0.341,0.611-0.281,1.582,0.543,2.067c0.824,0.487,1.791-0.01,1.791-0.01c0.216,1.023-0.252,1.862-0.905,2.432
				c-1.151,1.006-2.757,1.449-4.365,0.547c-2.021-1.132-2.188-3.484-0.898-5.411c1.294-1.931,3.078-2.765,3.699-2.886
				c0.619-0.123,1.332,0.108,2.482-0.045c1.149-0.156,1.721-0.648,2.841-1.211c1.117-0.566,3.048-0.286,3.048-0.286
				C88.774,73.952,87.38,75.895,86.295,77.124z M83.413,79.245c-1.508,0.334-2.024-0.935-1.82-1.258
				c0.207-0.323,0.57-0.332,1.048,0.023C83.281,78.491,83.413,79.245,83.413,79.245z M93.995,73.494
				c-0.301,0.549-0.448,0.825-0.738,1.377c0,0-2.852,3.564-4.137,1.759c-1.075-1.503,1.277-3.68,1.277-3.68
				S92.421,73.368,93.995,73.494z"/>
		</g>
		<g id="g2723_2_" transform="matrix(3.5961261,0,0,3.5961261,-42.305698,-218.40281)">
			<path id="path2725_2_" d="M97.231,77.386c0.018-0.269-0.04-0.812-0.559-0.837c-0.519-0.024-0.851,0.413-0.869,0.79
				c-0.018,0.375,0.2,0.795,0.66,0.816C96.905,78.175,97.212,77.654,97.231,77.386z"/>
		</g>
		<g id="g2727_2_" transform="matrix(3.5961261,0,0,3.5961261,-42.305698,-218.40281)">
			<path id="path2729_2_" d="M71.301,73.394c0.168,0.079,0.497-0.211,0.717-1.002c0.218-0.79,0.14-2.317-0.367-2.506
				c-0.407-0.151-0.778,0.554-0.743,0.792c0.071,0.477,0.61,0.39,0.548,1.581C71.417,72.939,71.083,73.291,71.301,73.394z"/>
		</g>
		<g id="g2731_2_" transform="matrix(3.5961261,0,0,3.5961261,-42.305698,-218.40281)">
			<path id="path2733_2_" d="M72.651,72.295c0.364,0.021,0.467-0.78,0.554-1.271c0.081-0.493,0.43-1.28,0.612-1.697
				c0.187-0.422,0.23-1.133-0.025-1.17c-0.254-0.034-0.417,0.216-0.699,0.729c-0.282,0.513-0.211,1.291-0.316,2.152
				C72.701,71.645,72.327,72.277,72.651,72.295z"/>
		</g>
		<g id="g2735_2_" transform="matrix(3.5961261,0,0,3.5961261,-42.305698,-218.40281)">
			<path id="path2737_2_" d="M73.611,71.115c-0.134,0.667-0.164,0.719-0.162,1.168c0.001,0.448,0.494,0.444,0.514-0.198
				c0.013-0.408,0.432-1.252,0.771-1.515c0.409-0.321,0.883-1.111,0.266-1.277C74.378,69.123,73.744,70.445,73.611,71.115z"/>
		</g>
		<g id="g2739_2_" transform="matrix(3.5961261,0,0,3.5961261,-42.305698,-218.40281)">
			<path id="path2741_2_" d="M28.235,106.738c0.175-0.064,0.206-0.529-0.191-1.288c-0.397-0.758-1.528-1.842-2.023-1.61
				c-0.399,0.192-0.17,0.998,0.022,1.151c0.387,0.305,0.713-0.166,1.504,0.779C27.997,106.311,28.004,106.829,28.235,106.738z"/>
		</g>
		<g id="g2743_2_" transform="matrix(3.5961261,0,0,3.5961261,-42.305698,-218.40281)">
			<path id="path2745_2_" d="M28.432,104.906c0.277-0.255-0.21-0.933-0.493-1.363c-0.289-0.426-0.589-1.273-0.748-1.722
				c-0.163-0.448-0.63-1.014-0.84-0.854c-0.209,0.163-0.15,0.467,0.007,1.058c0.157,0.591,0.754,1.122,1.281,1.847
				C28.011,104.381,28.186,105.133,28.432,104.906z"/>
		</g>
		<g id="g2747_2_" transform="matrix(3.5961261,0,0,3.5961261,-42.305698,-218.40281)">
			<path id="path2749_2_" d="M28.295,103.312c0.37,0.6,0.386,0.661,0.703,0.994c0.317,0.332,0.666-0.03,0.23-0.525
				c-0.277-0.314-0.567-1.254-0.506-1.699c0.074-0.544-0.139-1.473-0.704-1.146C27.451,101.26,27.919,102.715,28.295,103.312z"/>
		</g>
		<g id="g2751_2_" transform="matrix(3.5961261,0,0,3.5961261,-42.305698,-218.40281)">
			<path id="path2753_2_" d="M21.431,125.585c0.151-0.127,0.059-0.629-0.522-1.294c-0.58-0.668-1.945-1.446-2.358-1.041
				c-0.331,0.329,0.101,1.099,0.325,1.2c0.45,0.197,0.637-0.402,1.643,0.336C21.091,125.207,21.235,125.75,21.431,125.585z"/>
		</g>
		<g id="g2755_2_" transform="matrix(3.5961261,0,0,3.5961261,-42.305698,-218.40281)">
			<path id="path2757_2_" d="M21.137,123.597c0.198-0.356-0.446-0.91-0.83-1.269c-0.388-0.357-0.898-1.143-1.169-1.558
				c-0.273-0.418-0.867-0.86-1.027-0.628c-0.158,0.236-0.021,0.533,0.284,1.101c0.305,0.568,1.017,0.93,1.712,1.521
				C20.596,123.181,20.961,123.913,21.137,123.597z"/>
		</g>
		<g id="g2759_2_" transform="matrix(3.5961261,0,0,3.5961261,-42.305698,-218.40281)">
			<path id="path2761_2_" d="M20.586,121.973c0.512,0.506,0.543,0.569,0.934,0.815c0.391,0.246,0.63-0.243,0.082-0.622
				c-0.348-0.24-0.872-1.129-0.93-1.611c-0.073-0.586-0.518-1.49-0.973-0.972C19.241,120.101,20.07,121.468,20.586,121.973z"/>
		</g>
		<g id="g2763_2_" transform="matrix(3.5961261,0,0,3.5961261,-42.305698,-218.40281)">
			<path id="path2765_2_" d="M112.534,72.75c0.1,0.151,0.538,0.063,1.156-0.509c0.62-0.571,1.387-1.92,1.059-2.331
				c-0.27-0.331-0.972,0.092-1.068,0.315c-0.2,0.445,0.308,0.634-0.395,1.627C112.884,72.416,112.403,72.554,112.534,72.75z"/>
		</g>
		<g id="g2767_2_" transform="matrix(3.5961261,0,0,3.5961261,-42.305698,-218.40281)">
			<path id="path2769_2_" d="M114.287,72.471c0.297,0.197,0.826-0.439,1.16-0.82c0.34-0.382,1.068-0.886,1.454-1.154
				c0.387-0.27,0.812-0.86,0.617-1.017c-0.201-0.156-0.473-0.02-0.997,0.281c-0.52,0.302-0.881,1.005-1.44,1.692
				C114.684,71.937,114.017,72.295,114.287,72.471z"/>
		</g>
		<g id="g2771_2_" transform="matrix(3.5961261,0,0,3.5961261,-42.305698,-218.40281)">
			<path id="path2773_2_" d="M115.746,71.929c-0.478,0.506-0.532,0.537-0.774,0.923c-0.238,0.387,0.178,0.624,0.543,0.082
				c0.232-0.344,1.052-0.863,1.487-0.92c0.525-0.074,1.359-0.517,0.921-0.966C117.488,70.598,116.223,71.419,115.746,71.929z"/>
		</g>
		<g id="g2775_2_" transform="matrix(3.5961261,0,0,3.5961261,-42.305698,-218.40281)">
			<path id="path2777_2_" d="M129.353,79.183c0.06,0.171,0.508,0.192,1.251-0.216c0.739-0.409,1.815-1.542,1.599-2.022
				c-0.177-0.387-0.962-0.144-1.113,0.049c-0.304,0.386,0.142,0.694-0.787,1.492C129.777,78.943,129.276,78.96,129.353,79.183z"/>
		</g>
		<g id="g2779_2_" transform="matrix(3.5961261,0,0,3.5961261,-42.305698,-218.40281)">
			<path id="path2781_2_" d="M131.122,79.334c0.24,0.264,0.909-0.227,1.33-0.517c0.424-0.291,1.252-0.608,1.692-0.775
				c0.442-0.17,1.002-0.64,0.85-0.842c-0.157-0.202-0.456-0.137-1.033,0.032c-0.58,0.167-1.107,0.764-1.819,1.3
				C131.638,78.908,130.907,79.099,131.122,79.334z"/>
		</g>
		<g id="g2783_2_" transform="matrix(3.5961261,0,0,3.5961261,-42.305698,-218.40281)">
			<path id="path2785_2_" d="M132.673,79.161c-0.589,0.378-0.647,0.396-0.979,0.714c-0.328,0.319,0.017,0.653,0.507,0.213
				c0.311-0.279,1.233-0.586,1.665-0.537c0.532,0.06,1.449-0.168,1.133-0.717C134.687,78.285,133.262,78.78,132.673,79.161z"/>
		</g>
		<g id="g2787_2_" transform="matrix(3.5961261,0,0,3.5961261,-42.305698,-218.40281)">
			<path id="path2789_2_" d="M160.346,114.493c-0.057,0.194,0.281,0.545,1.11,0.744c0.827,0.195,2.357,0.007,2.482-0.575
				c0.097-0.474-0.664-0.844-0.901-0.791c-0.474,0.11-0.311,0.714-1.523,0.722C160.823,114.595,160.421,114.241,160.346,114.493z"/>
		</g>
		<g id="g2791_2_" transform="matrix(3.5961261,0,0,3.5961261,-42.305698,-218.40281)">
			<path id="path2793_2_" d="M161.639,115.953c0.025,0.409,0.847,0.482,1.352,0.546c0.508,0.065,1.348,0.417,1.792,0.602
				c0.448,0.188,1.17,0.196,1.175-0.101c0.003-0.295-0.27-0.467-0.823-0.756c-0.554-0.292-1.328-0.163-2.212-0.232
				C162.301,115.964,161.612,115.577,161.639,115.953z"/>
		</g>
		<g id="g2795_2_" transform="matrix(3.5961261,0,0,3.5961261,-42.305698,-218.40281)">
			<path id="path2797_2_" d="M162.953,116.969c-0.689-0.114-0.747-0.143-1.199-0.114c-0.45,0.035-0.383,0.593,0.267,0.578
				c0.413-0.011,1.317,0.421,1.625,0.799c0.375,0.454,1.227,0.96,1.319,0.234C165.058,117.734,163.645,117.08,162.953,116.969z"/>
		</g>
		<g id="g2799_2_" transform="matrix(3.5961261,0,0,3.5961261,-42.305698,-218.40281)">
			<path id="path2801_2_" d="M164.062,137.492c-2.406-1.453-1.888-5.363-1.813-7.72c0.003-3.043-0.485-5.503-0.485-5.503
				c2.782,1.248,5.198,3.215,6.901,5.75c1.491,2.186,1.224,3.386,0.989,4.049c-0.236,0.671-0.796,1.331-1.67,0.971
				c-0.638-0.261-1.135-1.247-0.964-2.221c0.171-0.964,0.771-0.607,0.771-0.607c-0.305,1.692,0.986,1.915,1.315,1.166
				c0.332-0.748-0.092-1.52-0.441-1.848c-0.355-0.33-1.774-1.358-2.338,0.408c-0.636,2.003,0.509,3.297,1.081,3.887
				c0.577,0.587,2.483,1.81,3.474-0.222c0.878-3.087-1.197-5.255-2.926-7.501c-1.823-1.897-4.016-3.403-6.357-4.587
				c-1.046-3.312-3.008-5.256-3.008-5.256s1.472-0.48,0.91-1.796c-0.949-2.21-3.798-3.6-3.798-3.6
				c0.971,0.049,2.454-0.087,2.152-0.823c-0.299-0.738-3.329-2.51-3.329-2.51s1.679-0.424,0.962-2.098
				c-0.72-1.673-2.63-2.316-2.63-2.316c0.294-0.143,0.913-0.734,0.218-1.979c-0.697-1.249-3.883-2.213-3.883-2.213
				c0.448-0.067,1.878-0.476,1.676-0.979c-0.35-0.865-3.629-1.877-3.629-1.877c1.158-0.342,1.961-0.29,1.961-0.29
				c-1.927-3.709-5.418-6.834-9.601-7.609c1.04-0.405,2.715-0.616,2.715-0.616c-0.472-0.476-0.818-0.024-2.046-0.877
				c-1.222-0.852-2.838-2.771-5.28-4.186c-2.438-1.411-5.536-1.314-5.536-1.314c0.271-0.219,1.161-1.437,0.23-1.894
				c-0.931-0.458-4.552-0.039-4.552-0.039s1.026-1.3,0.337-2.089c-0.848-0.967-3.757-0.214-3.757-0.214s0.459-1.13-0.255-1.647
				c-1.236-0.896-3.948,0.391-3.948,0.391s1.308-1.115,0.883-1.549c-0.425-0.434-2.2,0.225-2.2,0.225
				c2.205-1.977,4.615-4.2,7.479-5.177c2.088-0.713,3.223,0.041,3.223,0.041c0.146-0.096,0.219-0.144,0.365-0.24
				c-2.033-0.878-4.818-0.184-6.998,1.212c-2.357,1.645-4.63,3.309-6.715,5.292c-3.106,1.67-4.234,1.262-4.707,0.898
				c-0.475-0.362-0.429-2.192,0.646-3.027c1.234-0.953,2.129-0.208,2.129-0.208s-0.673,0.576-0.258,0.991
				c0.207,0.214,0.629,0.281,1.087,0c0.46-0.28,0.712-0.928,0.25-1.535c-0.708-0.927-3.24-0.128-4.375,1.046
				c-1.131,1.177-1.462,2.735-0.927,3.477c1.111,1.544,5.272-0.802,5.272-0.802c-3.543,3.543-6.918,7.261-10.396,10.868
				c-2.193,2.265-4.347,4.582-6.631,6.757c0.112,0.006,0.167,0.008,0.279,0.015c2.359-2.129,4.531-4.469,6.809-6.684
				c2.417-2.273,4.798-4.569,7.135-6.924c2.66-2.753,4.882-4.733,5.379-5.049c0.498-0.321,1.487-0.612,1.582-0.373
				c0.09,0.238-0.445,0.878-1.665,2.083c-1.218,1.206-2.259,1.882-2.259,1.882s1.32,0.079,2.512-1.164
				c2.314-2.408,4.606-2.009,4.768-1.531c0.177,0.535-0.07,1.483-1.27,2.498c-1.456,1.232-1.916,0.527-1.916,0.527
				s1.064-0.308,0.751-1.113c-0.505-1.299-2.164,0.493-1.798,1.172c0.551,1.009,1.469,0.97,2.987,0.273
				c1.517-0.691,2.428-1.95,2.428-1.95c2.723-0.76,3.052,0.428,1.907,2.089c-0.959,1.387-1.964,1.151-1.964,1.151
				s0.488-0.266,0.15-0.923c-0.469-0.916-1.784,0.119-1.609,0.894c0.146,0.658,0.64,1.041,2.381,0.475
				c1.739-0.567,2.408-1.517,2.408-1.517s4.081-0.438,3.694,0.631c-0.608,1.647-4.899,2.573-4.899,2.573
				c0.272,0.133,0.408,0.2,0.678,0.336c0.549-0.087,1.36,0.087,1.622,0.393c0.262,0.306,0.951,2.347-4.036,4.775
				c-3.271,1.592-6.527,3.219-9.819,4.767c0.138,0.05,0.206,0.075,0.344,0.126c4.626-2.073,12.028-3.704,15-8.216
				c1.237-2.186-1.745-2.287-1.745-2.287c2.11-0.493,3.657-1.392,3.657-1.392c3.014,0.259,4.384,1.249,4.384,1.249
				s-4.043,0.248-4.507,2.097c-0.524,2.081,3.217,2.003,3.217,2.003c-0.757,2.356,3.466,2.126,3.466,2.126
				c-3.283,1.446-6.546,2.929-9.794,4.454c-3.833,1.736-7.701,3.393-11.614,4.94c0.084,0.039,0.125,0.058,0.208,0.097
				c3.928-1.682,7.946-3.159,11.89-4.807c4.153-1.776,8.319-3.509,12.515-5.181c1.986,0.378,3.377,1.282,3.377,1.282
				s-4.089-0.287-4.748,1.589c-0.661,1.874,3.056,2.295,3.056,2.295c-1.021,2.053,2.087,2.535,2.087,2.535
				c-3.202,0.604-6.394,1.26-9.591,1.895c-4.688,0.91-9.343,1.895-13.961,3.111c0.102,0.063,0.153,0.095,0.254,0.159
				c4.853-1.242,9.773-2.074,14.715-2.871c4.055-0.678,8.126-1.314,12.147-2.175c1.478,0.336,2.984,0.928,2.93,1.282
				c-0.054,0.358-1.017,0.622-2.202,0.814c-4.03,0.656-8.063,1.257-12.079,2.004c-3.821,0.767-7.628,1.588-11.435,2.424
				c0.083,0.064,0.123,0.096,0.206,0.16c3.44-0.765,6.893-1.388,10.371-1.948c3.196-0.467,6.414-0.788,9.6-1.315
				c0,0,1.165,0.174,1.934,1.179c1.211,1.582,1.183,3.553,2.712,5.246c2.558,2.839,3.97,2.975,3.97,2.975
				c-2.385-1.747-2.581-2.715-2.581-2.715c2.467,1.376,4.518,1.315,4.518,1.315c1.269,0.585,2.243,1.442,2.115,1.909
				c-0.127,0.462-2.354,0.436-4.042,0.339c-4.22-0.237-8.445-0.376-12.668-0.549c-3.597-0.112-7.181-0.099-10.778-0.065
				c0.07,0.081,0.106,0.122,0.176,0.203c4.946-0.159,9.863,0.231,14.791,0.59c3.583,0.237,7.163,0.516,10.744,0.784
				c3.139,1.063,3.555,2.99,3.413,3.405c-0.138,0.418-0.89,1.428-2.759,0.725c-1.872-0.702-1.431-1.58-1.431-1.58
				s0.478-0.102,0.703-0.548c0.357-0.711-1.28-1.671-1.914-0.389c-0.591,1.192,0.666,2.194,2.293,3.153
				c1.624,0.957,3.303,0.744,3.303,0.744c3.063,3.22,2.77,7.02,2.77,7.02c-2.125-3.014-5.488-6.819-9.544-4.415
				c-1.695,1.173-1.649,4.075-0.147,6.665c1.505,2.594,3.837,3.657,5.076,3.23c1.238-0.433,1.747-2.304,1.037-3.817
				c-0.707-1.513-2.488-1.158-2.197-0.007c0.291,1.151,1.587,0.58,1.587,0.58c0.82,1.246-0.622,3.228-2.694,2.148
				c-2.072-1.081-2.741-3.982-2.43-5.985c0.314-2.004,1.993-3.798,5.369-1.96c3.247,1.768,4.018,5.418,4.018,5.418
				s-0.112,4.055,0.391,6.119c0.991,4.104,3.163,5.602,3.163,5.602C164.337,138.402,164.247,138.097,164.062,137.492z
				 M132.599,88.368c0,0-2.383-0.121-2.132-1.225c0.244-1.049,2.558-2.391,4.461-1.568c0,0,1.013,0.76,1.792,1.484
				C136.72,87.059,133.848,87.173,132.599,88.368z M136.536,90.574c0,0-2.81-0.278-2.85-1.409c-0.035-0.971,2.71-1.809,3.705-1.546
				c0,0,1.163,0.996,2.709,1.648C140.099,89.267,138.702,89.65,136.536,90.574z M141.048,95.201c0,0-2.221-0.469-2.033-1.476
				c0.161-0.869,2.273-2.012,4.132-1.22c0,0,1.403,1.042,2.167,2.01C145.313,94.515,142.106,93.965,141.048,95.201z M143.688,97.867
				c0,0-1.82-0.615-1.862-1.55c-0.042-0.918,2.435-1.561,3.987-1.142c0,0,0.88,0.988,1.385,2.058
				C145.781,97.454,145.078,97.581,143.688,97.867z M147.716,104.542c0,0-1.131-2.163-2.812-2.905
				c1.088-0.179,1.636-0.258,2.739-0.396c0,0,1.343,0.106,2.503,0.551c1.09,0.417,2.077,1.263,1.608,2.114
				c-0.339,0.605-1.164,0.809-1.875,0.851C148.812,104.823,147.716,104.542,147.716,104.542z M149.26,107.717
				c0,0-0.614-1.333-1.277-2.674c0,0,2.798,1.025,4.279,0.389c0,0,2.585,1.231,1.751,2.434
				C153.273,108.943,150.721,108.729,149.26,107.717z"/>
		</g>
		<g id="g2803_2_" transform="matrix(3.5961261,0,0,3.5961261,-42.305698,-218.40281)">
			<path id="path2805_2_" d="M154.82,104.252c0.879,2.141,1.889,3.663,2.616,4.24c0.73,0.575,2.526,0.995,2.166,0.147
				c-0.36-0.848-1.429-0.296-1.429-0.296c-1.298-1.329-1.191-2.416-2.515-5.14c-0.774-1.594-1.889-2.506-2.667-3.077
				c-1.578-1.155-2.546-0.802-2.546-0.802C152.595,100.128,153.941,102.111,154.82,104.252z"/>
		</g>
		<g id="g2807_2_" transform="matrix(3.5961261,0,0,3.5961261,-42.305698,-218.40281)">
			<path id="path2809_2_" d="M156.331,103.733c0.073,0.234,0.853,0.613,1.342,0.597c0.49-0.02,1.574,0.335,1.983,0.563
				c0.409,0.229,0.836,0.342,0.632-0.08c-0.198-0.423-0.862-0.998-1.358-1.027c-0.496-0.034-1.466,0.022-1.837-0.113
				C156.483,103.454,156.262,103.504,156.331,103.733z"/>
		</g>
	</g>
</g>
<g>
	<g>
		<g id="g2811_2_" transform="matrix(3.5961261,0,0,3.5961261,-355.53063,-267.22684)">
			<path id="path2813_2_" fill="#010202" d="M176.759,233.31c-0.119-0.12-0.495,0.049-0.926,0.709
				c-0.432,0.663-0.834,2.081-0.457,2.392c0.309,0.259,0.846-0.285,0.888-0.509c0.085-0.455-0.409-0.528,0.013-1.602
				C176.518,233.691,176.919,233.467,176.759,233.31z"/>
		</g>
		<g id="g2815_2_" transform="matrix(3.5961261,0,0,3.5961261,-355.53063,-267.22684)">
			<path id="path2817_2_" fill="#010202" d="M175.254,233.928c-0.306-0.12-0.646,0.58-0.867,1.007
				c-0.223,0.426-0.764,1.051-1.052,1.382c-0.286,0.331-0.542,0.973-0.333,1.075c0.212,0.103,0.426-0.079,0.826-0.472
				c0.4-0.393,0.579-1.124,0.933-1.879C175.012,234.511,175.532,234.037,175.254,233.928z"/>
		</g>
		<g id="g2819_2_" transform="matrix(3.5961261,0,0,3.5961261,-355.53063,-267.22684)">
			<path id="path2821_2_" fill="#010202" d="M174.065,234.74c0.32-0.573,0.362-0.616,0.495-1.026
				c0.133-0.408-0.289-0.542-0.501,0.036c-0.138,0.37-0.756,1.026-1.132,1.172c-0.454,0.18-1.102,0.77-0.619,1.095
				C172.794,236.344,173.747,235.315,174.065,234.74z"/>
		</g>
		<g id="g2823_2_" transform="matrix(3.5961261,0,0,3.5961261,-355.53063,-267.22684)">
			<path id="path2825_2_" fill="#010202" d="M111.227,188.15c0.058-0.181-0.255-0.504-1.042-0.679
				c-0.789-0.173-2.254,0.014-2.378,0.553c-0.107,0.439,0.617,0.773,0.84,0.721c0.451-0.107,0.309-0.66,1.47-0.678
				C110.777,188.058,111.15,188.383,111.227,188.15z"/>
		</g>
		<g id="g2827_2_" transform="matrix(3.5961261,0,0,3.5961261,-355.53063,-267.22684)">
			<path id="path2829_2_" fill="#010202" d="M110.025,186.815c-0.019-0.38-0.801-0.437-1.285-0.492
				c-0.482-0.055-1.28-0.367-1.701-0.531c-0.422-0.168-1.115-0.166-1.123,0.103c-0.006,0.274,0.249,0.427,0.776,0.69
				c0.525,0.259,1.268,0.131,2.108,0.187C109.39,186.81,110.041,187.155,110.025,186.815z"/>
		</g>
		<g id="g2831_2_" transform="matrix(3.5961261,0,0,3.5961261,-355.53063,-267.22684)">
			<path id="path2833_2_" fill="#010202" d="M108.784,185.891c0.658,0.096,0.715,0.125,1.146,0.091
				c0.429-0.034,0.374-0.549-0.245-0.529c-0.395,0.015-1.254-0.373-1.541-0.714c-0.353-0.415-1.16-0.865-1.258-0.198
				C106.788,185.212,108.126,185.797,108.784,185.891z"/>
		</g>
		<g id="g2835_2_" transform="matrix(3.5961261,0,0,3.5961261,-355.53063,-267.22684)">
			<path id="path2837_2_" fill="#010202" d="M220.238,222.357c-0.172-0.035-0.385,0.305-0.362,1.084
				c0.026,0.78,0.515,2.17,1.014,2.225c0.407,0.05,0.537-0.687,0.444-0.897c-0.194-0.422-0.65-0.217-0.922-1.333
				C220.259,222.801,220.462,222.401,220.238,222.357z"/>
		</g>
		<g id="g2839_2_" transform="matrix(3.5961261,0,0,3.5961261,-355.53063,-267.22684)">
			<path id="path2841_2_" fill="#010202" d="M219.341,223.674c-0.328,0.066-0.202,0.826-0.137,1.298
				c0.061,0.471-0.027,1.278-0.074,1.705c-0.048,0.427,0.113,1.094,0.348,1.068c0.237-0.027,0.31-0.291,0.416-0.83
				c0.106-0.539-0.173-1.238-0.319-2.052C219.476,224.288,219.634,223.617,219.341,223.674z"/>
		</g>
		<g id="g2843_2_" transform="matrix(3.5961261,0,0,3.5961261,-355.53063,-267.22684)">
			<path id="path2845_2_" fill="#010202" d="M218.818,224.983c-0.066-0.645-0.056-0.703-0.182-1.116
				c-0.126-0.409-0.558-0.294-0.399,0.299c0.102,0.379-0.036,1.254-0.264,1.573c-0.275,0.391-0.473,1.224,0.12,1.237
				C218.689,226.989,218.885,225.629,218.818,224.983z"/>
		</g>
		<g id="g2847_2_" transform="matrix(3.5961261,0,0,3.5961261,-355.53063,-267.22684)">
			<path id="path2849_2_" fill="#010202" d="M226.952,217.814c-0.174-0.016-0.351,0.349-0.24,1.124
				c0.113,0.777,0.756,2.109,1.255,2.11c0.41,0.005,0.456-0.746,0.338-0.944c-0.238-0.401-0.665-0.147-1.062-1.23
				C227.02,218.256,227.178,217.835,226.952,217.814z"/>
		</g>
		<g id="g2851_2_" transform="matrix(3.5961261,0,0,3.5961261,-355.53063,-267.22684)">
			<path id="path2853_2_" fill="#010202" d="M226.204,219.23c-0.317,0.1-0.109,0.847,0.008,1.311
				c0.113,0.464,0.117,1.278,0.115,1.711c0.002,0.43,0.234,1.08,0.466,1.026c0.23-0.052,0.274-0.323,0.319-0.873
				c0.046-0.55-0.309-1.218-0.542-2.015C226.408,219.828,226.491,219.14,226.204,219.23z"/>
		</g>
		<g id="g2855_2_" transform="matrix(3.5961261,0,0,3.5961261,-355.53063,-267.22684)">
			<path id="path2857_2_" fill="#010202" d="M225.831,220.594c-0.139-0.636-0.132-0.697-0.306-1.092
				c-0.171-0.395-0.589-0.231-0.364,0.342c0.143,0.367,0.105,1.255-0.086,1.599c-0.23,0.42-0.335,1.273,0.256,1.221
				C225.925,222.611,225.97,221.232,225.831,220.594z"/>
		</g>
		<g id="g2859_2_" transform="matrix(3.5961261,0,0,3.5961261,-355.53063,-267.22684)">
			<path id="path2861_2_" fill="#010202" d="M247.482,191.882c-0.16,0.07-0.155,0.509,0.286,1.196
				c0.443,0.69,1.604,1.647,2.049,1.396c0.367-0.202,0.076-0.946-0.115-1.079c-0.391-0.261-0.659,0.197-1.491-0.644
				C247.739,192.272,247.692,191.788,247.482,191.882z"/>
		</g>
		<g id="g2863_2_" transform="matrix(3.5961261,0,0,3.5961261,-355.53063,-267.22684)">
			<path id="path2865_2_" fill="#010202" d="M247.447,193.614c-0.238,0.257,0.279,0.861,0.587,1.249
				c0.306,0.387,0.667,1.163,0.858,1.574c0.191,0.411,0.686,0.914,0.868,0.751c0.182-0.163,0.102-0.445-0.101-0.992
				c-0.201-0.549-0.812-1.009-1.372-1.656C247.894,194.081,247.66,193.387,247.447,193.614z"/>
		</g>
		<g id="g2867_2_" transform="matrix(3.5961261,0,0,3.5961261,-355.53063,-267.22684)">
			<path id="path2869_2_" fill="#010202" d="M247.719,195.101c-0.405-0.537-0.427-0.597-0.755-0.891
				c-0.325-0.295-0.625,0.068-0.172,0.506c0.291,0.277,0.647,1.145,0.627,1.569c-0.02,0.512,0.264,1.374,0.767,1.035
				C248.692,196.979,248.124,195.641,247.719,195.101z"/>
		</g>
		<g id="g2871_2_" transform="matrix(3.5961261,0,0,3.5961261,-355.53063,-267.22684)">
			<path id="path2873_2_" fill="#010202" d="M252.62,174.531c-0.139,0.123-0.032,0.581,0.553,1.184
				c0.587,0.604,1.93,1.283,2.301,0.894c0.308-0.318-0.146-1.022-0.362-1.105c-0.437-0.171-0.59,0.392-1.588-0.262
				C252.959,174.869,252.802,174.368,252.62,174.531z"/>
		</g>
		<g id="g2875_2_" transform="matrix(3.5961261,0,0,3.5961261,-355.53063,-267.22684)">
			<path id="path2877_2_" fill="#010202" d="M252.987,176.37c-0.171,0.338,0.468,0.832,0.855,1.151
				c0.385,0.321,0.913,1.036,1.192,1.415c0.279,0.379,0.872,0.768,1.01,0.546c0.139-0.225-0.004-0.496-0.325-1.014
				c-0.322-0.519-1.018-0.834-1.708-1.359C253.526,176.738,253.141,176.07,252.987,176.37z"/>
		</g>
		<g id="g2879_2_" transform="matrix(3.5961261,0,0,3.5961261,-355.53063,-267.22684)">
			<path id="path2881_2_" fill="#010202" d="M253.592,177.86c-0.515-0.452-0.55-0.509-0.935-0.725
				c-0.383-0.216-0.588,0.249-0.049,0.582c0.344,0.212,0.889,1.021,0.968,1.468c0.099,0.543,0.571,1.37,0.98,0.872
				C254.967,179.558,254.108,178.317,253.592,177.86z"/>
		</g>
		<g id="g2883_2_" transform="matrix(3.5961261,0,0,3.5961261,-355.53063,-267.22684)">
			<path id="path2885_2_" fill="#010202" d="M237.271,204.805c0,0-0.075-0.334,0.902-1.689c2.606-3.195,5.758-6.611,4.965-11.107
				c0,0,1.218,0.967,1.904-0.188c0.301-0.506,0.222-1.267,0.135-2.11c-0.112-1.075-0.31-2.196-0.31-2.196s1.05,0.681,1.881,0.065
				c0.832-0.616,0.124-3.043-0.198-3.629c0,0,0.941,0.492,1.446-0.179c0.503-0.672,0.005-2.867-0.409-3.757
				c0,0,1.003,0.968,1.339,0.517c0.333-0.455-0.028-2.497-0.706-3.836c0,0,1.813,1.687,3.506,3.887
				c1.819,2.168,3.348,4.992,2.558,7.898c0.085,0.18,0.128,0.27,0.213,0.451c1.289-2.921-0.767-6.095-2.129-8.562
				c-1.553-2.138-3.314-4.13-5.31-5.867c0,0-1.896-2.941-0.713-3.714c1.297-0.853,4.325,0.982,3.504,2.802
				c0,0-0.504-0.562-0.925-0.13c-0.42,0.429,0.254,2.003,0.959,1.388c0.707-0.612,1.185-2.49-0.8-4.512
				c-1.986-2.019-3.327-1.135-3.735-0.633c-0.408,0.501-0.48,1.695,0.628,3.656c-2.852-2.699-5.677-5.426-8.478-8.178
				c-2.684-2.739-5.223-5.624-7.743-8.514c0.009,0.152,0.014,0.229,0.022,0.38c2.556,2.921,5.07,5.881,7.676,8.759
				c3.233,3.436,6.638,6.693,9.904,10.095c0,0,1.335,2.242,0.796,3.004c-0.214,0.303-1.223-0.858-1.947-1.581
				c-0.727-0.726-1.817-1.766-2.061-2.509c0,0-0.287,0.629,0.771,2.232c0,0,3.263,3.163,2.469,5.011
				c-0.355,0.835-1.157,0.315-2.009-0.263c-1.029-0.701-1.693-1.387-1.358-2.685c0,0,0.758,0.966,1.223,0.125
				c0.471-0.839-1.151-1.814-1.731-0.793c-0.585,1.022-0.07,3.692,2.297,5.089c0,0,1.125,1.877,0.212,2.61
				c-0.785,0.632-4.087-1.356-3.342-2.683c0,0,0.667,0.763,1.149,0.295c0.546-0.528-0.782-2.177-1.541-0.992
				c-0.908,1.416,0.926,4.005,2.133,4.56c0,0,0.148,1.126,0.271,2.249c0.091,0.863-0.235,1.471-0.933,1.283
				c-1.114-0.303-2.524-2.545-3.018-4.199c-0.066,0.162-0.099,0.242-0.167,0.404c0,0,0.914,2.385-0.488,2.655
				c-2.975-0.393-4.721-4.137-5.796-6.565c-1.208-2.552-2.464-5.083-3.538-7.696c-0.044,0.162-0.067,0.243-0.111,0.404
				c1.608,3.748,3.042,7.657,5.149,11.159c1.322,1.8,4.01,6.327,5.732,2.425c0,0,0.363,1.306,1.377,2.26
				c0,0,0.452,1.724-0.958,4.628c0,0-0.259-3.998-2.562-4.228c-2.284-0.232-1.391,3.423-1.391,3.423s-2.096-1.132-2.127,2.309
				c-2.055-3.728-3.431-7.857-5.071-11.775c-1.545-3.576-3.127-7.135-4.712-10.693c-0.038,0.127-0.057,0.19-0.096,0.316
				c1.827,4.286,3.671,8.558,5.411,12.881c1.826,4.64,3.735,9.256,5.509,13.915C237.057,203.143,236.962,204.235,237.271,204.805z
				 M238.417,195.826c0,0-0.647-2.726,0.7-2.564c2.193,0.264,2.348,3.884,2.348,3.884c-0.451,0.9-1.754,2.548-1.754,2.548
				C239.91,196.587,238.417,195.826,238.417,195.826z M236.53,199.637c0,0-0.54-2.998,0.645-3c2.016,0.002,2.133,3.597,2.133,3.597
				c-1.263,1.188-1.679,2.2-1.679,2.2C237.396,201.275,236.53,199.637,236.53,199.637z"/>
		</g>
		<g id="g2887_2_" transform="matrix(3.5961261,0,0,3.5961261,-355.53063,-267.22684)">
			<path id="path2889_2_" fill="#010202" d="M196.06,236.117c1.763,0.884,4.353-1.843,5.066-3.891
				c0.713-2.048,1.273-4.276,1.273-4.276c5.272-1.982,5.128-5.008,5.128-5.008c-1.333,2.657-3.688,3.253-3.688,3.253
				c0.56-1.095,0.499-1.834,1.196-3.744c0.694-1.912,1.769-2.317,1.769-2.317c0.522,1.883,2.748,1.816,2.989,0.947
				c0.209-0.758-0.121-1.427-0.918-1.753c-0.796-0.328-1.709,0.136-1.709,0.136c-0.503-1.932,0.446-3.545,2.75-4.499
				c2.301-0.956,4.47,0.872,4.131,3.966c-0.339,3.09-2.752,4.404-2.752,4.404s-2.24-0.081-3.681,1.509
				c-1.298,1.432-0.86,2.432-0.86,2.432c0.28-0.397,0.417-0.596,0.687-0.994c-0.197-1.219,1.085-1.338,2.479-1.589
				c1.393-0.249,3.122-0.79,3.122-0.79c-0.279,1.246-0.541,2.903-1.956,5.634c-1.349,2.609-2.738,3.457-3.794,3.159
				c-0.852-0.241-1.276-1.031-1.144-1.548c0.125-0.515,0.341-1.246,1.506-1.33c1.272-0.09,1.02,1.028,1.02,1.028
				c-0.177-0.342-1.204-0.518-1.419,0.323c-0.265,1.055,1.269,1.469,1.848,0.292c0.411-0.834,0.439-2.049-0.678-2.368
				c-1.121-0.318-2.348,0.62-2.672,1.458c-0.25,0.641-0.829,2.637,0.783,3.162c1.613,0.528,3.472-0.882,5.033-4.001
				c1.561-3.121,1.853-6.031,1.853-6.031c2.685-1.217,3.387-3.69,3.387-3.69s0.691,1.25,1.243,1.013
				c1.764-0.761,2.216-3.894,2.216-3.894s0.418,2.495,0.829,2.161c1.385-1.131,2.183-4.65,2.183-4.65s0.14,0.764,0.27,1.492
				c0.131,0.723-0.048,1.835-0.048,1.835c0.34-0.752,0.759-1.005,2.843-2.327c2.081-1.323,2.155-3.764,2.155-3.764
				s0.526,1.258,1.116,0.833c0.718-0.516,0.895-1.068,1.012-1.63c0.175-0.845,0.085-1.614,0.085-1.614s-0.396,1.892-1.175,1.8
				c-0.912-0.109-1.717-3.528-1.717-3.528s0.186-0.766,0.455-0.79c0.833-0.07,3.257,3.634,3.895,3.242
				c0.464-0.285,0.666-2.923,0.666-2.923s0.855,0.94,1.481,0.565c1.219-0.737,0.716-4.416,0.716-4.416
				c1.697,3.582,3.621,7.31,2.961,11.397c-0.536,3.953-2.651,4.792-2.651,4.792c-0.007,0.305-0.011,0.458-0.02,0.764
				c2.824-1.454,3.463-6.196,3.397-8.995c-0.294-3.461-1.809-6.694-3.583-9.628c-1.182-1.978-1.214-2.596-1.214-2.596
				c-0.654,1.021,0.293,1.905,0.591,3.735c0.336,2.059-0.042,3.454-0.57,3.573c-0.361,0.086-1.519-0.605-2.068-1.947
				c-0.543-1.343,0.399-2.036,0.399-2.036c0.258,1.395,1.434,0.965,1.06-0.136c-0.603-1.792-2.437,0.059-2.086,2.141
				c0.352,2.083,1.385,2.647,1.385,2.647c-0.057,0.414-0.088,0.621-0.152,1.035c-0.198,1.383-1.738-0.364-2.993-1.635
				c-1.256-1.271-1.932,0.248-1.932,0.248s-0.276-0.979-1.686-6.536c-1.408-5.556-1.646-7.434-1.646-7.434
				c-0.07,0.094-0.105,0.141-0.176,0.235c0.332,3.655,1.201,7.269,1.936,10.856c0.644,2.642,1.278,5.251,2.346,7.758
				c-0.205,1.539-1.644,2.367-1.644,2.367c0.471-1.869,0.336-4.321-1.097-4.846c-1.495-0.548-2.227,2.051-2.227,2.051
				s-0.334-2.014-1.145-6.265c-0.634-3.786-0.935-7.619-1.537-11.412c-0.065,0.078-0.099,0.116-0.165,0.193
				c0.325,3.712,0.675,7.416,1.133,11.115c0.442,2.981,0.856,5.98,1.486,8.928c-0.476,2.371-1.407,3.876-1.69,3.899
				c-0.287,0.022-0.478-1.147-0.721-2.291c-1.155-4.882-1.419-9.947-1.771-14.934c-0.327-3.536-0.895-7.058-1.143-10.597
				c-0.122,0.152-0.184,0.228-0.308,0.379c0.418,4.113,0.797,8.215,1.063,12.342c0.152,3.152,0.199,6.327,0.777,9.438
				c0.2,1.396,0.851,3.117,0.542,4.774c-0.229,1.236-0.93,2.768-1.45,2.754c-0.52-0.014-1.596-1.116-1.826-2.518
				c-0.246-1.481,0.984-1.746,0.984-1.746s-0.325,1.008,0.468,1.063c1.027,0.071,0.681-1.839-0.324-1.773
				c-0.891,0.059-1.578,1.029-1.664,2.489c-0.077,1.342,0.444,2.356,0.444,2.356c-0.43,2.842-3.982,3.591-3.982,3.591
				c2.071-2.232,3.449-6.669,0.671-8.952c-2.327-1.646-4.891,0.685-5.896,2.309c-1.084,1.741-0.621,3.314-0.621,3.314
				c-1.508,0.616-2.167,2.94-2.167,2.94s-0.424-1.312-1.383-1.168c-1.13,0.174-1.899,1.673-1.899,1.673
				c0.831-4.148,1.856-8.252,2.697-12.398c0.602-2.903,1.202-5.805,1.9-8.686c-0.097,0.055-0.146,0.083-0.243,0.137
				c-0.701,2.896-1.515,5.764-2.197,8.665c-0.78,3.487-1.73,6.937-2.413,10.445c-0.881,4.867-1.786,6.111-1.786,6.111
				s-1.267,0.284-2.723,1.469c-1.363,1.103-1.428,2.3-1.428,2.3c0.285-0.196,0.427-0.295,0.708-0.494
				c0.018-1.92,3.999-2.245,3.999-2.245c-0.967,2.851-2.342,5.915-5.023,7.532c-1.856,1.173-3.641-0.436-2.911-1.584
				c0.452-0.712,1.125-0.682,1.607-0.473c0.349,0.153,0.583,0.432,0.583,0.432c-0.878-0.334-1.91,1.014-0.855,1.509
				c1.05,0.493,2.752-1.685,0.544-2.607c-2.065-0.866-4.18,2.575-2.232,3.973C193.416,238.589,196.06,236.117,196.06,236.117z
				 M207.387,219.934c0.086-0.093,0.624-0.146,1.118-0.031c0.53,0.124,0.917,0.622,0.881,0.808c-0.062,0.32-0.561,0.339-1.053,0.148
				C207.593,220.573,207.387,219.934,207.387,219.934z M223.6,212.265c0,0,0.576-2.677,1.92-1.662
				c1.341,1.015,0.823,3.184,0.617,3.752c0,0-0.935,0.618-1.925,1.355C223.997,214.321,223.874,213.632,223.6,212.265z
				 M201.021,224.036c0,0,1.286-2.3,2.425-0.771c0.939,1.255-0.436,3.27-0.436,3.27s-0.888,0.277-1.484,0.342
				c-0.594,0.065-1.404,0.256-1.404,0.256S200.541,226.092,201.021,224.036z M200.346,228.323c0,0,1.04-0.144,1.551-0.294
				c0,0-0.579,2.578-1.265,4.149c-0.687,1.569-2.298,3.328-3.485,2.696C197.147,234.875,198.446,233.705,200.346,228.323z"/>
		</g>
		<g id="g2891_2_" transform="matrix(3.5961261,0,0,3.5961261,-355.53063,-267.22684)">
			<path id="path2893_2_" fill="#010202" d="M197.297,224.851c0.46-0.112,0.618-0.598,0.521-0.945
				c-0.098-0.353-0.413-0.678-0.82-0.578c-0.395,0.097-0.503,0.653-0.44,0.902C196.623,224.48,196.839,224.962,197.297,224.851z"/>
		</g>
		<g id="g2895_2_" transform="matrix(3.5961261,0,0,3.5961261,-355.53063,-267.22684)">
			<path id="path2897_2_" fill="#010202" d="M154.482,227.114c0.967,1.428,4.11-0.428,4.11-0.428s-1.135,1.297-0.958,1.564
				c0.231,0.351,1.257,0.065,1.257,0.065c-1.916,2.101-4.562,3.463-5.471,3.894c-0.907,0.434-3.642,1.317-4.258-0.422
				c-0.281-0.789,0.105-1.599,0.667-1.83c0.547-0.217,1.081-0.209,1.475,0.338c0.469,0.65,0.119,1.042,0.119,1.042
				c-0.355-0.647-1.847-0.355-1.645,0.651c0.221,1.086,3.284,0.118,2.358-1.909c-0.776-1.689-4.232-0.739-4.124,1.628
				c0.106,2.368,3.123,1.942,5.355,1.142c2.405-1.052,4.464-2.852,6.317-4.678c1.001-0.267,1.496-0.409,2.473-0.709
				c0,0-1.163,1.329-0.203,1.87c0.965,0.537,3.401-0.292,3.401-0.292s-0.287,0.904,0.59,1.158c1.087,0.319,3.624-1.273,3.624-1.273
				s-1.193,1.41-0.764,1.711c0.914,0.641,3.445-1.067,3.445-1.067c-1.76,2.308-3.756,4.47-6.072,6.231
				c-2.895,2.131-3.996,1.251-3.996,1.251c-0.264,0.159-0.397,0.238-0.664,0.396c0.682,0.6,2.338,0.323,5.545-1.583
				c3.204-1.907,5.167-4.971,5.167-4.971c2.525-0.382,2.343,0.618,6.606,0.592c2.822-0.004,5.796-1.004,7.735-3.112
				c-4.301,2.576-5.93,1.998-5.93,1.998s3.139-2.591,2.353-4.347c-0.863-1.935-3.868,1.05-3.868,1.05
				c-0.381-2.826-3.18-0.875-3.18-0.875s1.373-2.397,3.525-5.255c2.092-2.683,4.439-5.158,6.796-7.606
				c-0.152,0.017-0.226,0.026-0.378,0.042c-2.397,2.4-4.859,4.759-7.008,7.39c-1.987,2.621-3.928,5.276-5.921,7.894
				c-1.155,0.836-2.315,1.262-2.485,1.137c-0.171-0.124,0.47-1.194,0.875-1.743c2.751-3.836,5.477-7.689,8.23-11.523
				c2.246-2.984,4.506-5.959,6.957-8.78c-0.136,0.017-0.205,0.026-0.341,0.043c-2.392,2.879-4.897,5.67-7.189,8.631
				c-2.048,2.74-4.103,5.475-6.157,8.211c-0.829,0.444-1.751,0.778-5.293-0.195c-3.545-0.971-5.551,0.668-5.551,0.668
				c1.262-0.691,2.825-0.009,2.825-0.009c-1.178,0.677-2.031,1.688-2.031,1.688c-1.454,0.558-3.305,0.932-3.372,0.627
				c-0.07-0.305,0.29-1.028,1.285-2.204c0.995-1.17,2.074-1.871,2.074-1.871c-1.489-0.105-3.304,2.224-3.304,2.224
				c-1.511,1.024-2.994,1.634-3.518,1.238c-0.614-0.462,0.057-1.97,0.755-2.756c1.324-1.487,2.254-0.862,2.254-0.862
				c-0.765,0.158-0.735,0.888-0.467,1.186c0.207,0.226,0.527,0.269,0.99-0.133c0.498-0.433,0.912-1.875-1.088-1.727
				C156.402,222.66,153.514,225.685,154.482,227.114z M179.06,227.625c0,0,2.099-1.98,2.766-0.486c0.667,1.495-1.96,3.24-1.96,3.24
				s-1.771-0.243-2.824-0.275C177.043,230.104,178.773,228.967,179.06,227.625z M175.028,227.498c0,0,2.086-1.847,2.846-0.234
				c0.56,1.182-1.48,2.782-1.48,2.782s-2.274-0.182-3.433,0.139C173.817,229.121,174.23,228.583,175.028,227.498z M168.559,225.931
				c0,0,2.277,0.209,3.619-0.49c-0.657,0.906-0.995,1.355-1.691,2.246c0,0-3.14,2.63-3.825,1.269
				C166.049,227.732,168.559,225.931,168.559,225.931z M165.317,225.201c0,0,1.94,0.319,2.659,0.64c0,0-2.075,1.333-2.431,2.428
				c0,0-1.972,1.133-2.429,0.15C162.657,227.436,164.5,225.782,165.317,225.201z"/>
		</g>
		<g id="g2899_2_" transform="matrix(3.5961261,0,0,3.5961261,-355.53063,-267.22684)">
			<path id="path2901_2_" fill="#010202" d="M152.775,218.591c0.93,1.938,3.241,0.048,2.862-0.876
				c-0.382-0.928-1.391-0.022-1.275,0.399c0.117,0.42,0.485,0.339,0.485,0.339c-0.911,1.359-2.301-1.147-0.659-2.1
				c1.514-0.874,3.851,0.973,2.81,3.147c-1.043,2.172-5.955,2.851-5.955,2.851c-0.187,0.178-0.281,0.267-0.47,0.444
				c0.657-0.176,3.05-0.694,3.228,0.237c0.163,0.848-1.571,3.192-4.404,4.586c-2.604,1.108-5.128,2.273-8.005,2.223
				c-0.21,0.097-0.316,0.146-0.527,0.241c3.539,0.515,7.699-1.273,10.671-3.073c1.644-1.034,2.441-2.003,3-2.928
				c1.31-2.181-0.287-2.14-0.287-2.14c1.736-0.61,5.404-2.782,3.803-5.27c-0.825-1.282-2.421-1.501-3.642-0.864
				C153.196,216.443,152.311,217.625,152.775,218.591z"/>
		</g>
		<g id="g2903_2_" transform="matrix(3.5961261,0,0,3.5961261,-355.53063,-267.22684)">
			<path id="path2905_2_" fill="#010202" d="M124.641,197.316c-1.901-1.783-1.347-2.201-2.687-3.849
				c-1.31-1.609-2.927-1.652-2.927-1.652c2.156,1.09,2.278,2.36,2.278,2.36s-4.703-1.329-4.854,0.679
				c-0.146,2.008,4.369,3.222,4.369,3.222s-2.364,0.214-2.261,0.987c0.102,0.782,3.766,1.91,3.766,1.91s-1.843,0.345-1.609,1.236
				c0.445,1.72,3.115,2.36,3.115,2.36s-0.911,0.602-0.651,1.105c0.342,0.653,3.143,1.479,3.143,1.479
				c-1.051,0.341-1.81,0.26-1.81,0.26c0.497,0.257,1.039,1.173,2.852,3.093c1.808,1.924,4.455,1.953,4.455,1.953
				s-1.558,0.483-1.442,0.92c0.228,0.849,3.884,1.248,3.884,1.248c-2.349,1.1-4.846,1.926-7.435,2.204
				c-3.768,0.29-4.906-1.008-4.906-1.008c-0.14,0.057-0.21,0.085-0.351,0.142c2.58,1.841,6.102,1.651,9.004,0.797
				c2.187-0.675,6.218-2.29,6.218-2.29c2.24-0.291,3.078,0.149,3.12,0.851c0.044,0.832-0.555,1.917-1.718,2.366
				c-1.272,0.488-2.049-0.468-2.049-0.468c1.097-0.152,1.145-1.888-0.16-1.426c-0.843,0.3-0.831,1.004-0.739,1.425
				c0.186,0.823,1.7,1.33,3.125,0.968c2.408-0.61,3.018-2.109,3.018-2.109c1.821-0.572,3.353,1.182,3.353,1.182
				s-1.829,0.546-2.318,0.701c-0.49,0.15-2.248,0.746-2.329,2.055c-0.114,1.951,3.425,1.201,3.425,1.201
				c-0.871,1.474,0.662,1.588,0.662,1.588c-3.56,1.906-6.036,2.251-6.954,2.301c-0.917,0.051-3.697-0.174-3.83-1.679
				c-0.152-1.65,1.372-2.058,2.023-1.197c0.455,0.604,0.173,0.915,0.173,0.915c-0.206-0.469-1.63-0.313-1.462,0.661
				c0.231,1.314,2.77,0.362,2.492-0.987c-0.262-1.281-1.408-1.73-2.345-1.606c-0.485,0.065-2.248,0.551-2.272,2.13
				c-0.028,1.885,2.024,2.411,4.571,2.386c2.998-0.205,5.947-1.451,8.62-2.755c0.989,0.075,2.221-0.497,2.221-0.497
				s-1.432,0.935-1.265,1.288c0.432,0.908,3.334,0.344,3.334,0.344c0.111-0.148,0.167-0.222,0.278-0.37c0,0-2.488,0.368-2.121-0.422
				c0.314-0.677,1.725-1.458,3.257-2.371c1.034-0.613,2.065-0.921,2.065-0.921c-2.211,0.039-4.636-1.292-6.9-2.942
				c-2.268-1.649-4.54-1.418-4.54-1.418c0.458-2.121-3.506-1.846-3.506-1.846c3.593-1.785,7.123-3.681,10.681-5.533
				c2.624-1.314,5.962-2.673,5.962-2.673c-0.12-0.061-0.18-0.092-0.3-0.155c0,0-2.427,1.053-4.585,1.963
				c-2.637,1.138-5.235,2.361-7.835,3.581c-2.861,1.361-7.015,3.352-7.015,3.352s-2.422-0.269-2.59-0.738
				c-0.17-0.471,1.532-1.127,2.723-1.64c1.191-0.512,2.968-0.53,2.968-0.53c-0.814-0.371-1.735-0.719-2.696-0.472
				c-0.955,0.247-2.858,1.177-2.858,1.177c-2.092-0.166-3.467-1.472-3.467-1.472s3.765,0.477,4.419-1.353
				c0.652-1.831-2.779-2.589-2.779-2.589c3.911-1.166,7.868-2.183,11.809-3.24c3.42-0.886,6.839-1.807,10.3-2.521
				c-0.123-0.076-0.184-0.115-0.307-0.193c-4.878,0.94-9.71,2.188-14.545,3.326c-3.45,0.878-6.9,1.762-10.309,2.79
				c0,0-1.074-0.207-2.282-0.767c-1.342-0.625,0.189-1.366,1.772-2.757c1.582-1.391-0.31-2.447-0.31-2.447s2.254-0.473,5.226-0.789
				c2.846-0.212,5.664-0.409,8.518-0.269c-0.085-0.083-0.128-0.125-0.213-0.208c-2.847-0.269-5.727-0.118-8.578-0.025
				c-2.795,0.1-5.582,0.463-8.313,1.062c-1.35-0.158-3.154-0.843-3.189-1.129c-0.048-0.402,1.11-0.665,1.69-0.864
				c3.263-0.982,6.659-1.456,10.016-1.993c2.73-0.436,5.516-0.768,8.284-0.635c-0.09-0.099-0.135-0.148-0.224-0.247
				c-2.922-0.108-5.8,0.197-8.704,0.476C127.466,196.706,124.641,197.316,124.641,197.316z M147.598,219.268
				c0,0,1.764,0.944,3.202,0.972c0,0-4.779,3.032-5.884,1.766C143.969,220.925,146.661,219.459,147.598,219.268z M145.146,217.609
				c0,0,1.231,0.957,1.972,1.374c0,0-2.266,0.579-3.118,1.662c0,0-2.124,0.693-2.491-0.463
				C141.141,219.029,143.624,217.875,145.146,217.609z M129.652,207.062c0,0,3.218,0.454,2.32,2.098
				c-0.92,1.69-3.634,0.888-3.634,0.888s-1.222-1.167-1.782-2.161C127.806,207.581,128.426,207.415,129.652,207.062z
				 M125.827,201.12c0,0,1.901,0.36,0.336,1.657c-1.43,1.183-1.786,1.354-1.786,1.354s-1.823-0.154-2.141-1.282
				C121.876,201.572,125.827,201.12,125.827,201.12z M118.909,196.831c-0.827-0.531-1.279-1.128-1.007-1.455
				c0.538-0.644,2.492-0.919,3.609-0.616c0,0,0.494,1.677,2.218,2.691C123.729,197.451,120.903,198.107,118.909,196.831z"/>
		</g>
		<g id="g2907_2_" transform="matrix(3.5961261,0,0,3.5961261,-355.53063,-267.22684)">
			<path id="path2909_2_" fill="#010202" d="M131.972,218.376c-0.53,0.026-2.19,0.447-2.835,0.686
				c-0.653,0.24-0.129,0.677,0.641,0.592c0.765-0.085,1.437-0.571,2.132-0.754c0.698-0.185,1.035-0.05,1.01-0.322
				C132.898,218.309,132.507,218.352,131.972,218.376z"/>
		</g>
		<g id="g2911_2_" transform="matrix(3.5961261,0,0,3.5961261,-355.53063,-267.22684)">
			<path id="path2913_2_" fill="#010202" d="M124.774,215.17c0.769-0.011,1.483-0.432,2.192-0.549
				c0.709-0.121,1.036,0.05,1.035-0.226c0-0.274-0.395-0.27-0.93-0.298c-0.53-0.025-2.219,0.239-2.884,0.414
				C123.517,214.69,124.001,215.182,124.774,215.17z"/>
		</g>
		<g id="g2915_2_" transform="matrix(3.5961261,0,0,3.5961261,-355.53063,-267.22684)">
			<path id="path2917_2_" fill="#010202" d="M113.456,196.911c-0.507-0.219-2.196-0.545-2.887-0.604s-0.361,0.624,0.382,0.883
				c0.741,0.261,1.544,0.083,2.256,0.213c0.714,0.127,0.979,0.412,1.056,0.134C114.339,197.257,113.96,197.124,113.456,196.911z"/>
		</g>
		<g id="g2919_2_" transform="matrix(3.5961261,0,0,3.5961261,-355.53063,-267.22684)">
			<path id="path2921_2_" fill="#010202" d="M114.95,195.288c-1.122-2.933-3.091-1.781-3.091-1.781
				c0.791-0.111,1.734,0.82,2.338,2.68c0.412,1.277,1.516,3.436,2.687,4.164c1.321,0.817,2.533,0.609,2.533,0.609
				C116.481,200.483,115.928,197.835,114.95,195.288z"/>
		</g>
		<g id="g2923_2_" transform="matrix(3.5961261,0,0,3.5961261,-355.53063,-267.22684)">
			<path id="path2925_2_" fill="#010202" d="M102.584,167.605c-0.556,1.235,2.196,3.8,3.025,1.153
				c0.527-1.684-0.233-2.896-1.302-3.79c-1.107-0.944-2.363-1.226-3.066,0.075c-1.348,3.275,1.261,6.502,3.466,8.645
				c2.178,2.247,5.298,4.165,5.298,4.165c0.671,2.672,2.17,5.059,4.166,6.932c0,0-2.358,0.373-1.399,2.205
				c1.039,1.986,3.727,3.067,3.727,3.067s-3.451-0.114-1.895,1.491c1.79,1.844,3.192,1.944,3.192,1.944s-2.353-1.349-2.193-1.93
				c0.159-0.582,1.299-0.676,2.426-0.722c3.59-0.249,7.204-0.122,10.8-0.161c4.202-0.064,8.409-0.124,12.611-0.053
				c-0.082-0.105-0.124-0.158-0.205-0.264c-3.914-0.07-7.835,0.073-11.746-0.149c-3.836-0.201-7.686-0.141-11.527-0.194
				c-0.839-0.255-2.414-0.705-3.467-1.903c-1.073-1.218-0.024-2.549,1.948-2.403c1.978,0.146,2.086,1.911,2.086,1.911
				c-0.348-0.568-1.522-0.117-1.089,0.826c0.423,0.927,2.633,0.527,1.441-1.708c-1.031-1.943-4.182-2.011-4.182-2.011
				c-2.269-2.16-3.718-5.262-3.613-8.413c1.375,2.838,6.242,7.555,9.084,3.665c0.925-1.678,0.968-3.552,0.607-5.368
				c-0.328-1.664-0.825-2.355-1.705-3.626c-1.5-2.262-6.495-3.757-5.693,0.581c0.989,3.462,3.994,2.357,3.514,0.551
				c-0.484-1.802-1.757-0.902-1.652-0.258c0.105,0.641,0.819,0.714,0.819,0.714c-0.135,0.645-0.771,0.596-0.771,0.596
				c-1.785-0.578-1.648-3.392-0.2-3.761c1.446-0.368,4.333,1.86,4.594,4.684c0.293,2.394-0.08,6.509-3.418,6.35
				c-2.735-0.547-4.349-3.298-5.251-5.71c0.409-2.669,0.329-3.958-0.629-6.322c-0.955-2.361-2.845-3.501-2.845-3.501
				c0.222,0.641,0.336,0.958,0.568,1.583c2.355,1.212,2.087,3.374,1.825,5.56c-0.265,2.208-0.027,5.026-0.027,5.026
				c-2.601-1.413-3.397-2.113-5.829-5.004c-2.43-2.897-2.086-4.86-1.731-5.617c0.352-0.752,1.312-1.352,1.954-0.654
				c0.639,0.699,0.73,1.374,0.602,2.17c-0.129,0.793-0.873,0.931-0.873,0.931C104.444,167.63,103.071,166.524,102.584,167.605z"/>
		</g>
	</g>
</g>
</svg>
