<?xml version="1.0" encoding="utf-8"?>
<!-- Generator: Adobe Illustrator 19.0.0, SVG Export Plug-In . SVG Version: 6.00 Build 0)  -->
<svg version="1.1" id="Layer_1" xmlns="http://www.w3.org/2000/svg" xmlns:xlink="http://www.w3.org/1999/xlink" x="0px" y="0px"
	 viewBox="0 0 500 500" style="enable-background:new 0 0 500 500;" xml:space="preserve">
<style type="text/css">
	.st0{fill:#521F04;}
</style>
<g id="XMLID_1_">
	<path id="XMLID_3_" class="st0" d="M69.7,228.8c4.8,0,9.5-0.1,14.3,0.1c0.1,9.3,0,18.6,0.1,27.8c-0.1,1.4,0.2,3-0.9,4
		c-2.7,2.9-5.6,5.7-8.3,8.6c-0.7,0.6-1.2,1.5-2.2,1.5c-1.9-1.4-3.5-3.2-5.1-5c3.1-3.6,7-6.6,9.7-10.4c0.3-6.5,0.2-13.1,0.1-19.6
		c-2.4-0.1-4.7,0.1-7.1-0.2c-0.9-0.3-0.7-1.4-0.8-2.2C69.3,231.9,69.5,230.4,69.7,228.8z"/>
	<path id="XMLID_6_" class="st0" d="M120.8,228.9c8.3-0.1,16.6-0.1,25,0c0.3,11.1,0.1,22.3,0.1,33.4c-8,0.1-16.1,0.1-24.1,0
		c-1.2,0.1-1-1.5-1.1-2.3C120.8,249.6,120.5,239.2,120.8,228.9 M127.6,236c-0.5,5.4-0.1,10.8-0.2,16.2c0.2,1.1-0.5,3.5,1.3,3.3
		c3.1,0,6.1,0.1,9.2,0c1.1,0.1,1.5-1,1.3-1.9c0-5.9,0-11.8-0.1-17.7C135.4,235.8,131.5,235.5,127.6,236z"/>
	<path id="XMLID_7_" class="st0" d="M179.8,228.9c2.2-0.1,4.5-0.1,6.7-0.1c0.4,7.2-0.1,14.4,0.3,21.5c1.5,2.6,4,5.6,7.3,5.2
		c1.4-0.3,4.2,0.7,4.3-1.4c0.1-7.1,0-14.3,0-21.4c0.2-1.2-0.5-3.1,0.7-3.9c1.9-0.3,3.9-0.2,5.8,0.1c0.3,1.2,0.3,2.5,0.3,3.8
		c-0.1,9.8,0,19.6-0.1,29.3c-5,0.3-10.1,0.1-15.1,0.2c-2.2,0.2-3.5-1.8-5-3.1c-1.8-1.9-4-3.5-5.3-5.8
		C179.6,245.3,179.7,237.1,179.8,228.9z"/>
	<path id="XMLID_10_" class="st0" d="M237.7,235.3c-0.1-2.1-0.5-4.4,0.3-6.4c8-0.2,16,0,23.9-0.1c1.2,0,2.5-0.1,3.6,0.3
		c0.2,6.4,0.2,12.9,0,19.4c-1.5,0-3,0-4.5,0.1c2.4,4.8,5.4,9.3,7.9,14.1c-2,1.4-4.1,2.8-6.4,3.7c-4-5.6-6.8-12-10.8-17.6
		c-1.4-0.5-3-0.1-4.4-0.1c-0.1,4.4,0.3,8.9-0.2,13.4c-2.2,0.6-4.5,0.4-6.7,0.1c-0.2-0.9-0.3-1.8-0.3-2.7c0.1-7.7,0-15.5,0-23.2
		C239.3,235.9,238.5,235.7,237.7,235.3 M247.5,242.2c3.8,0,7.6,0.1,11.4-0.1c0.1-2.1,0.1-4.2,0-6.3c-3.8-0.1-7.6-0.1-11.4-0.1
		C247.3,237.9,247.3,240.1,247.5,242.2z"/>
	<path id="XMLID_11_" class="st0" d="M298.3,241.2c0.1-4.1-0.2-8.3,0.3-12.4c2.4,0.3,5.9-1.1,7.2,1.7c3.9,6.4,7.4,12.9,11.4,19.2
		c0.2-6.9-0.2-13.9,0.2-20.8c2.1,0,4.1,0,6.2,0c0.1,10.8,0.1,21.7,0,32.5c0.1,1.4-1.9,0.8-2.8,1c-1.7-0.2-4.1,0.6-5-1.3
		c-3.9-6-7-12.4-11.1-18.2c-0.1,6.5,0.3,13-0.2,19.4c-2,0-4.1,0-6.1,0C298.1,255.3,298.3,248.3,298.3,241.2z"/>
	<path id="XMLID_12_" class="st0" d="M356.8,228.8c6.1,0.1,12.2-0.2,18.3,0.1c0.7,1.4,0.3,3.1,0.4,4.6c0,0.8,0.1,2.2-1.1,2.2
		c-3.7,0.1-7.4-0.1-11,0.1c0.1,2-0.7,4.5,0.5,6.2c3.9,0.4,7.8-0.3,11.6,0.4c0,2,0,4-0.2,6c-3.9,0-7.8-0.2-11.7,0.1
		c-0.6,2.1-0.5,4.5,0,6.6c3.8,1,8-0.6,11.7,0.7c0.3,2,0.3,4.1,0,6.2c-5.6,0.6-11.4,0.1-17.1,0.3c-2.1,0.3-1.6-2.3-1.7-3.6
		C356.8,248.8,356.3,238.8,356.8,228.8z"/>
	<path id="XMLID_13_" class="st0" d="M410.3,247.1c0.1-6.1-0.2-12.2,0.2-18.2c2.1,0,4.2,0,6.3,0c0.6,5.8-0.4,11.7,0.5,17.4
		c2.7,0.3,5.4,0.3,8,0c0.6-5.7-0.3-11.4,0.4-17c2.1-0.6,4.4-0.2,6.5-0.3c0.4,9.1,0,18.2,0.2,27.3c-0.1,1.4,0.3,3.1-0.8,4.2
		c-3.5,3.7-7.2,7.3-10.8,10.9c-1.8-1.4-3.4-2.9-4.8-4.6c2.6-2.9,5.4-5.7,8.1-8.6c1.2-1.1,1.8-3,1.1-4.5c-4.9-0.9-9.9,0.2-14.8-0.5
		C410,251.1,410.3,249.1,410.3,247.1z"/>
</g>
</svg>
